#N canvas 0 22 450 300 12;
#X obj 39 164 t a b;
#X obj 39 23 inlet;
#X obj 39 101 t a b;
#X msg 254 64 clear;
#X obj 39 62 route \$1;
#X obj 309 225 outlet;
#X msg 121 182 100000;
#X obj 253 95 text define \$2-\$1;
#X obj 39 212 text set \$2-\$1;
#X obj 39 140 \$3;
#X text 98 24 an utility to store incoming stuff in a text;
#X text 194 157 arg 2 = \$0 for textname;
#X text 194 139 arg 1 = selector/textname;
#X text 192 176 arg 3 = list or json interpreter;
#X connect 0 0 8 0;
#X connect 0 1 6 0;
#X connect 1 0 4 0;
#X connect 2 0 9 0;
#X connect 2 1 3 0;
#X connect 3 0 7 0;
#X connect 4 0 2 0;
#X connect 4 1 5 0;
#X connect 6 0 8 1;
#X connect 9 0 0 0;
