#N canvas 399 233 937 527 10;
#X declare -lib purest_json;
#X obj 356 294 urlparams;
#X msg 261 180 clear;
#X obj 321 19 inlet;
#X obj 317 204 s reset;
#X obj 261 140 bng 15 250 50 0 empty empty empty 17 7 0 10 -262144
-1 -1;
#X msg 317 173 0;
#X obj 356 346 outlet;
#X obj 418 118 s \$0-api_key;
#X obj 789 13 import purest_json;
#X obj 321 49 route clear bang api_key t f;
#X obj 298 134 t b b b;
#X msg 387 176 add api_key \$1;
#X obj 387 149 symbol;
#X msg 517 149 add t \$1;
#X obj 517 119 symbol;
#X obj 590 117 symbol;
#X msg 590 147 add f \$1;
#X msg 356 321 GET http://www.freesound.org/api/sounds/content_search/?\$1
;
#X connect 0 0 17 0;
#X connect 1 0 0 0;
#X connect 2 0 9 0;
#X connect 4 0 1 0;
#X connect 5 0 3 0;
#X connect 9 0 4 0;
#X connect 9 1 10 0;
#X connect 9 2 7 0;
#X connect 9 2 12 0;
#X connect 9 3 14 0;
#X connect 9 4 15 0;
#X connect 10 0 1 0;
#X connect 10 1 5 0;
#X connect 10 2 0 0;
#X connect 11 0 0 0;
#X connect 12 0 11 0;
#X connect 13 0 0 0;
#X connect 14 0 13 0;
#X connect 15 0 16 0;
#X connect 16 0 0 0;
#X connect 17 0 6 0;
