#N canvas 536 57 1006 688 10;
#X declare -lib purest_json;
#X declare -lib purest_json -lib cyclone -lib list-abs -lib zexy -lib
pdogg;
#X declare -lib purest_json -lib zexy -lib cyclone;
#X msg 406 206 next;
#X msg 445 206 prev;
#X msg 487 206 stop;
#X obj 192 348 bng 15 250 50 0 empty empty empty 17 7 0 10 -262144
-1 -1;
#X floatatom 249 353 10 0 1e+06 0 - - -;
#X obj 491 85 bng 15 250 50 0 empty empty empty 17 7 0 10 -262144 -1
-1;
#X obj 166 399 r api_key;
#X obj -136 124 s api_key;
#X text 92 59 1 set query parameters;
#X text 407 183 3 navigate search results;
#X text 624 54 4 load into table (if wav or aif);
#X text -137 56 0 set api key;
#X obj -136 77 loadbang;
#N canvas 0 22 450 278 (subpatch) 0;
#X array freesound_snd 1.61678e+06 float 2;
#X coords 0 1 1.61678e+06 -1 200 140 1;
#X restore -121 492 graph;
#X obj 641 379 hip~ 5;
#X msg 641 280 bang;
#X msg 680 279 stop;
#X obj 642 418 dac~;
#X obj 770 404 s loop;
#X obj 728 315 spigot;
#X obj 778 279 tgl 15 0 empty empty empty 17 7 0 10 -262144 -1 -1 0
1;
#X obj 728 278 r loop;
#X obj 770 375 bng 15 250 50 0 empty empty empty 17 7 0 10 -262144
-1 -1;
#X obj 641 347 tabplay~ freesound_snd;
#X text 448 63 2 perform search;
#X msg 91 166 f .lowlevel.spectral_centroid.mean:[500 TO *];
#X msg 72 130 f .lowlevel.spectral_energyband_low.mean:[0.0004 TO 0.0006]
;
#X obj -34 155 r api_key;
#X msg 61 85 f .tonal.key_key:"A" .tonal.key_scale="minor" .tonal.key_strength:[0.8
TO *];
#X obj 626 99 s load;
#X obj 249 268 r load;
#X obj -149 -14 cnv 15 1000 30 empty empty fs_content_search 20 12
0 14 -148502 -262144 0;
#X text -140 25 Freesound API content-based sound search resource;
#X text 170 23 http://www.freesound.org/docs/api/resources.html#sound-content-based-search-resource
;
#X obj 192 234 fs_content_search;
#X obj 192 317 fs_results;
#X obj 166 462 fs_sound;
#X msg -136 100 api_key <YOUR_API_KEY>;
#X msg 626 73 load freesound_snd;
#X obj 114 283 r api_key;
#X connect 0 0 35 1;
#X connect 1 0 35 1;
#X connect 2 0 35 1;
#X connect 4 0 36 0;
#X connect 5 0 34 0;
#X connect 6 0 36 0;
#X connect 12 0 37 0;
#X connect 14 0 17 0;
#X connect 14 0 17 1;
#X connect 15 0 23 0;
#X connect 16 0 23 0;
#X connect 19 0 23 0;
#X connect 20 0 19 1;
#X connect 21 0 19 0;
#X connect 22 0 18 0;
#X connect 23 0 14 0;
#X connect 23 1 22 0;
#X connect 25 0 34 0;
#X connect 26 0 34 0;
#X connect 27 0 34 0;
#X connect 28 0 34 0;
#X connect 30 0 35 1;
#X connect 34 0 35 0;
#X connect 35 0 3 0;
#X connect 35 1 4 0;
#X connect 37 0 7 0;
#X connect 38 0 29 0;
#X connect 39 0 35 0;
