#N canvas 405 349 937 527 10;
#X declare -lib purest_json;
#X obj 346 242 urlparams;
#X obj 354 381 list2symbol;
#X obj 417 319 loadbang;
#X obj 418 349 symbol;
#X obj 354 413 prepend GET;
#X msg 96 139 clear;
#X obj 282 87 t b b;
#X obj 687 44 route f;
#X obj 483 60 route api_key;
#X obj 277 55 route bang;
#X obj 321 19 inlet;
#X obj 491 107 prepend add api_key;
#X obj 684 73 prepend add f;
#X obj 302 169 s reset;
#X obj 96 50 route clear;
#X obj 98 94 bng 15 250 50 0 empty empty empty 17 7 0 10 -262144 -1
-1;
#X msg 301 132 0;
#N canvas 125 22 721 569 preview 0;
#X obj 113 91 route preview-lq-ogg;
#X obj 191 149 list append;
#X obj 169 187 zl reg;
#X obj 204 295 print ogg;
#X obj 292 171 t l;
#X obj 297 204 zl nth;
#X obj 400 386 shell;
#X obj 437 296 prepend curl;
#X obj 444 461 oggread~;
#X msg 472 424 open /tmp/fs_preview.ogg;
#X msg 386 430 start;
#X obj 455 390 t b b;
#X obj 446 498 dac~;
#X obj 325 405 print shell;
#X obj 326 468 print shell_done;
#X obj 338 343 prepend;
#X msg 274 296 -o /tmp/fs_preview.ogg;
#X obj 295 232 symbol;
#X obj 296 261 t b s;
#X obj 122 146 r preview;
#X msg 79 145 list;
#X obj 84 116 r reset;
#X obj 117 48 r filelist;
#X obj 358 171 r current;
#X obj 546 307 r stop;
#X msg 555 342 stop;
#X connect 0 0 1 0;
#X connect 1 0 2 1;
#X connect 1 0 4 0;
#X connect 2 0 5 0;
#X connect 4 0 1 1;
#X connect 5 0 17 0;
#X connect 6 1 11 0;
#X connect 6 1 14 0;
#X connect 7 0 15 1;
#X connect 8 0 12 0;
#X connect 8 1 12 1;
#X connect 9 0 8 0;
#X connect 10 0 8 0;
#X connect 11 0 10 0;
#X connect 11 1 9 0;
#X connect 15 0 6 0;
#X connect 15 0 13 0;
#X connect 16 0 15 0;
#X connect 17 0 3 0;
#X connect 17 0 18 0;
#X connect 18 0 16 0;
#X connect 18 1 7 0;
#X connect 19 0 2 0;
#X connect 20 0 2 0;
#X connect 21 0 20 0;
#X connect 22 0 0 0;
#X connect 23 0 5 1;
#X connect 24 0 25 0;
#X connect 25 0 8 0;
#X restore 819 126 pd preview;
#N canvas 4 22 727 686 load 1;
#X obj -138 70 route original_filename;
#X obj -15 112 t l;
#X obj -117 112 list append;
#X obj -151 150 zl reg;
#X msg -170 113 list;
#X obj -137 35 r filelist;
#X obj 365 92 list append;
#X obj 334 136 zl reg;
#X msg 315 82 list;
#X obj 362 27 r filelist;
#X obj 364 63 route serve;
#X obj 74 15 r download;
#X obj 413 145 r current;
#X obj 380 177 zl nth;
#X obj 17 363 prepend curl;
#X obj -98 151 r current;
#X obj -156 174 zl nth;
#X obj -81 364 prepend -o;
#X obj -29 415 prepend;
#X obj 449 88 t l;
#X obj 295 48 r reset;
#X obj -202 41 r reset;
#X obj 12 272 prepend;
#X obj 112 116 r api_key;
#X obj 66 311 symbol;
#X obj 67 284 loadbang;
#X obj 170 142 prepend ?api_key=;
#X obj 18 213 symbol;
#X obj 110 144 symbol;
#X obj 109 169 makesymbol ?api_key=%s;
#X obj -45 449 shell;
#X obj -9 607 soundfiler;
#X obj 34 537 prepend read -resize;
#X obj -26 514 symbol;
#X obj -4 570 prepend;
#X obj -26 483 t b b;
#X obj 72 45 t b a b b;
#X obj 63 457 list2symbol;
#X obj -164 199 list;
#X obj -162 231 s2l;
#X obj -160 258 l2s _;
#X obj -65 310 symbol;
#X obj 47 509 r fname;
#X obj -180 368 s fname;
#X obj -158 286 prepend /tmp/;
#X obj -84 335 l2s;
#X obj 18 326 l2s;
#X obj -62 284 loadbang;
#X obj 54 73 s ar;
#X obj 65 427 r ar;
#X obj 13 71 s fn;
#X obj -210 111 r fn;
#X connect 0 0 2 0;
#X connect 1 0 2 1;
#X connect 2 0 1 0;
#X connect 2 0 3 1;
#X connect 3 0 16 0;
#X connect 4 0 3 0;
#X connect 5 0 0 0;
#X connect 6 0 7 1;
#X connect 6 0 19 0;
#X connect 7 0 13 0;
#X connect 8 0 7 0;
#X connect 9 0 10 0;
#X connect 10 0 6 0;
#X connect 11 0 36 0;
#X connect 12 0 13 1;
#X connect 13 0 22 1;
#X connect 14 0 18 1;
#X connect 15 0 16 1;
#X connect 16 0 38 0;
#X connect 17 0 18 0;
#X connect 18 0 30 0;
#X connect 19 0 6 1;
#X connect 20 0 8 0;
#X connect 21 0 4 0;
#X connect 22 0 46 0;
#X connect 23 0 28 0;
#X connect 24 0 46 1;
#X connect 25 0 24 0;
#X connect 27 0 22 0;
#X connect 28 0 29 0;
#X connect 29 0 27 1;
#X connect 30 1 35 0;
#X connect 32 0 34 1;
#X connect 33 0 34 0;
#X connect 34 0 31 0;
#X connect 35 0 33 0;
#X connect 36 0 50 0;
#X connect 36 1 48 0;
#X connect 36 2 27 0;
#X connect 36 3 7 0;
#X connect 37 0 33 1;
#X connect 38 0 39 0;
#X connect 39 0 40 0;
#X connect 40 0 44 0;
#X connect 41 0 45 1;
#X connect 42 0 32 0;
#X connect 44 0 45 0;
#X connect 45 0 17 0;
#X connect 45 0 43 0;
#X connect 46 0 14 0;
#X connect 47 0 41 0;
#X connect 49 0 37 0;
#X connect 51 0 3 0;
#X restore 824 95 pd load;
#X obj 350 448 outlet;
#X obj 392 72 route t;
#X obj 389 105 prepend add t;
#X obj 352 278 prepend http://www.freesound.org/api/sounds/content_search/?
;
#X obj 502 83 s \$0-api_key;
#X obj 789 13 import purest_json;
#X connect 0 0 22 0;
#X connect 1 0 4 0;
#X connect 2 0 3 0;
#X connect 3 0 1 1;
#X connect 4 0 19 0;
#X connect 5 0 0 0;
#X connect 6 0 5 0;
#X connect 6 1 0 0;
#X connect 6 1 16 0;
#X connect 7 0 12 0;
#X connect 8 0 11 0;
#X connect 8 0 23 0;
#X connect 9 0 6 0;
#X connect 10 0 9 0;
#X connect 10 0 8 0;
#X connect 10 0 7 0;
#X connect 10 0 14 0;
#X connect 10 0 20 0;
#X connect 11 0 0 0;
#X connect 12 0 0 0;
#X connect 14 0 15 0;
#X connect 15 0 5 0;
#X connect 16 0 13 0;
#X connect 20 0 21 0;
#X connect 21 0 0 0;
#X connect 22 0 1 0;
