#N canvas 0 22 889 489 12;
#X obj 180 406 purest_json/rest;
#X obj 40 5 inlet;
#X obj 140 143 * 5;
#X obj 295 277 ggee/getdir 1;
#X obj 295 301 list;
#X obj 295 232 t b a;
#X obj 180 215 t a a;
#X obj 180 355 list;
#X obj 518 338 symbol;
#X obj 180 440 print;
#X obj 140 192 list split 1;
#X msg 327 254 symbol file-\$1;
#X obj 140 118 counter;
#X obj 140 168 text get \$1;
#X obj 518 38 inlet access_token;
#X obj 609 104 text define -k \$0-download_url;
#A set https://www.freesound.org/apiv2/sounds/ \;;
#X msg 180 268 0;
#X obj 180 245 t b a;
#X obj 180 331 list;
#X obj 180 292 text get \$0-download_url, f 15;
#X msg 295 324 file \$1/\$2.wav;
#X obj 47 246 spigot;
#X obj 40 57 t f f;
#X obj 40 81 sel 1;
#X obj 40 35 route float bang reset;
#X msg 140 65 0;
#X obj 47 273 del 1000;
#X msg 180 377 GET \$1\$2/download/?access_token=\$3;
#X connect 0 0 9 0;
#X connect 0 1 26 0;
#X connect 1 0 24 0;
#X connect 2 0 13 0;
#X connect 3 0 4 0;
#X connect 4 0 20 0;
#X connect 5 0 3 0;
#X connect 5 1 11 0;
#X connect 6 0 17 0;
#X connect 6 1 5 0;
#X connect 7 0 27 0;
#X connect 8 0 7 1;
#X connect 10 1 6 0;
#X connect 11 0 4 1;
#X connect 12 0 2 0;
#X connect 13 0 10 0;
#X connect 14 0 8 0;
#X connect 16 0 19 0;
#X connect 17 0 16 0;
#X connect 17 1 18 1;
#X connect 18 0 7 0;
#X connect 19 0 18 0;
#X connect 20 0 0 0;
#X connect 21 0 12 0;
#X connect 22 0 23 0;
#X connect 22 1 21 1;
#X connect 23 0 12 0;
#X connect 24 0 22 0;
#X connect 24 1 12 0;
#X connect 24 2 25 0;
#X connect 25 0 12 0;
#X connect 26 0 21 0;
#X connect 27 0 0 0;
