#N canvas 530 66 559 385 12;
#X obj 134 244 fs_download;
#X msg 134 106 42028;
#X obj 134 308 print;
#X msg 153 136 344758;
#X msg 170 171 path .;
#X text 43 44 Download sounds from freesound.org
, f 64;
#X text 211 18 "Freesound Pd";
#X text 184 108 <-- float is freesound id;
#X text 226 170 <-- send another path;
#X text 253 186 (default is .);
#X text 180 307 <-- bang when done;
#X obj 164 217 r \$0-d;
#N canvas 0 22 450 300 load_soundfile 0;
#X msg 18 52 344758;
#X msg 19 84 read -resize \$1.wav s-0;
#X obj 19 108 soundfiler;
#X obj 19 165 tabplay~ s-0;
#X obj 19 189 dac~;
#X msg 88 54 42028;
#X obj 19 133 bng 15 250 50 0 empty empty play 17 7 0 10 -262144 -1
-1;
#N canvas 0 22 450 278 (subpatch) 0;
#X array s-0 100 float 2;
#X coords 0 1 100 -1 200 140 1;
#X restore 219 67 graph;
#X connect 0 0 1 0;
#X connect 1 0 2 0;
#X connect 2 0 6 0;
#X connect 3 0 4 0;
#X connect 3 0 4 1;
#X connect 5 0 1 0;
#X connect 6 0 3 0;
#X restore 373 243 pd load_soundfile;
#X obj 439 338 fs_query;
#X text 270 339 see also helpfile for:;
#N canvas 0 22 450 300 api_key 0;
#X obj 51 75 bng 15 250 50 0 empty empty empty 17 7 0 10 -262144 -1
-1;
#X obj 50 95 fs_tokens tokens.json;
#X obj 50 119 list prepend access_token;
#X obj 50 143 list trim;
#X obj 50 167 s \$0-d;
#X obj 55 37 loadbang;
#X connect 0 0 1 0;
#X connect 1 0 2 0;
#X connect 2 0 3 0;
#X connect 3 0 4 0;
#X connect 5 0 0 0;
#X restore 447 21 pd api_key;
#X text 281 242 check it -->;
#X connect 0 0 2 0;
#X connect 1 0 0 0;
#X connect 3 0 0 0;
#X connect 4 0 0 0;
#X connect 11 0 0 0;
