#N canvas 0 22 748 657 12;
#X declare -path purest_json;
#X obj 57 497 purest_json/rest;
#X obj 57 24 inlet;
#X obj 57 342 list;
#X obj 509 180 symbol;
#X obj 423 450 text define -k \$0-download_url;
#A set https://www.freesound.org/apiv2/sounds/\$1/download/? \;;
#X msg 509 325 symbol access_token=\$1;
#X obj 57 457 list trim;
#X msg 57 364 symbol \$1\$2;
#X obj 57 388 list prepend GET;
#X obj 76 259 list trim;
#X obj 76 235 list prepend set symbol;
#X obj 76 211 text get \$0-download_url;
#X msg 76 186 0;
#N canvas 0 22 450 300 uri 0;
#X msg 54 117 symbol https://www.freesound.org/apiv2/sounds/\$1/download/?
, f 22;
#X obj 54 29 inlet;
#X obj 54 183 outlet;
#X connect 0 0 2 0;
#X connect 1 0 0 0;
#X restore 57 297 pd uri;
#X obj 57 136 t f b f;
#X obj 290 188 list prepend .;
#X msg 290 382 file \$1/\$2.wav;
#X obj 57 531 print fs_download_ERROR:;
#X obj 57 593 outlet done;
#X obj 57 80 route float path access_token, f 53;
#X text 426 544 see fs_download-help.pd;
#X obj 498 21 declare -path purest_json;
#X connect 0 0 17 0;
#X connect 0 1 18 0;
#X connect 1 0 19 0;
#X connect 2 0 7 0;
#X connect 3 0 5 0;
#X connect 5 0 2 1;
#X connect 6 0 0 0;
#X connect 7 0 8 0;
#X connect 8 0 6 0;
#X connect 9 0 13 0;
#X connect 10 0 9 0;
#X connect 11 0 10 0;
#X connect 12 0 11 0;
#X connect 13 0 2 0;
#X connect 14 0 13 0;
#X connect 14 1 12 0;
#X connect 14 2 15 0;
#X connect 15 0 16 0;
#X connect 16 0 6 0;
#X connect 19 0 14 0;
#X connect 19 1 15 1;
#X connect 19 2 3 0;
