#N canvas 0 22 450 300 12;
#X msg 194 150 channels:\$1;
#X msg 152 106 samplerate:\$1;
#X msg 294 188 type:\$1;
#X msg 294 125 wav;
#X obj 294 159 symbol;
#X msg 325 125 aiff;
#X obj 43 135 list append samplerate:44100, f 16;
#X obj 43 181 list append channels:1;
#X obj 43 205 list append type:wav;
#X obj 43 232 list prepend filter;
#X obj 152 80 unpack f f f;
#X obj 294 97 sel;
#X obj 43 63 t b a;
#X obj 43 24 inlet;
#X obj 43 253 outlet;
#X connect 0 0 7 1;
#X connect 1 0 6 1;
#X connect 2 0 8 1;
#X connect 3 0 4 0;
#X connect 4 0 2 0;
#X connect 5 0 4 0;
#X connect 6 0 7 0;
#X connect 7 0 8 0;
#X connect 8 0 9 0;
#X connect 9 0 14 0;
#X connect 10 0 1 0;
#X connect 10 1 0 0;
#X connect 10 2 11 0;
#X connect 11 0 3 0;
#X connect 11 1 5 0;
#X connect 12 0 6 0;
#X connect 12 1 10 0;
#X connect 13 0 12 0;
