#N canvas 584 55 450 300 12;
#X declare -lib zexy;
#X obj 37 20 inlet;
#X obj 37 64 list2symbol;
#X obj 37 115 list2symbol;
#X obj 37 138 list trim;
#X obj 268 15 declare -lib zexy;
#X obj 266 225 outlet bypass;
#X obj 37 41 route \$1;
#X obj 37 88 list prepend \$1:;
#X obj 37 165 print \$1;
#X connect 0 0 6 0;
#X connect 1 0 7 0;
#X connect 2 0 3 0;
#X connect 3 0 8 0;
#X connect 6 0 1 0;
#X connect 6 1 5 0;
#X connect 7 0 2 0;
