#N canvas 480 0 592 436 12;
#X declare -path purest_json;
#X obj 48 12 inlet INFO;
#N canvas 0 22 633 628 FILE 0;
#X symbolatom 177 120 0 0 0 0 type - -;
#X obj 176 75 symbol;
#X floatatom 177 143 0 0 0 0 channels - -;
#X floatatom 177 165 0 0 0 0 filesize - -;
#X floatatom 177 188 0 0 0 0 bitrate - -;
#X floatatom 177 211 0 0 0 0 bitdepth - -;
#X floatatom 177 234 0 0 0 0 duration - -;
#X obj 177 10 route type channels filesize bitrate bitdepth duration
samplerate, f 19;
#X floatatom 177 257 0 0 0 0 samplerate - -;
#X obj 177 -17 inlet;
#X obj 474 532 outlet;
#X obj 103 102 bng 15 250 50 0 empty empty empty 17 7 0 10 -262144
-1 -1;
#X obj 175 534 outlet;
#X obj 259 283 list prepend type;
#X obj 259 309 list prepend channels;
#X obj 259 335 list prepend filesize;
#X obj 259 361 list prepend bitrate;
#X obj 259 387 list prepend bitdepth;
#X obj 258 409 list prepend duration;
#X obj 258 435 list prepend samplerate;
#X obj 24 126 t a a a a a a a, f 5;
#X connect 0 0 13 0;
#X connect 1 0 0 0;
#X connect 2 0 14 0;
#X connect 3 0 15 0;
#X connect 4 0 16 0;
#X connect 5 0 17 0;
#X connect 6 0 18 0;
#X connect 7 0 1 0;
#X connect 7 1 2 0;
#X connect 7 2 3 0;
#X connect 7 3 4 0;
#X connect 7 4 5 0;
#X connect 7 5 6 0;
#X connect 7 6 8 0;
#X connect 7 7 10 0;
#X connect 8 0 19 0;
#X connect 9 0 7 0;
#X connect 11 0 20 0;
#X connect 13 0 12 0;
#X connect 14 0 12 0;
#X connect 15 0 12 0;
#X connect 16 0 12 0;
#X connect 17 0 12 0;
#X connect 18 0 12 0;
#X connect 19 0 12 0;
#X connect 20 0 0 0;
#X connect 20 1 2 0;
#X connect 20 2 3 0;
#X connect 20 3 4 0;
#X connect 20 4 5 0;
#X connect 20 5 6 0;
#X connect 20 6 8 0;
#X coords 0 -1 1 1 149 181 1 100 100;
#X restore 50 117 pd FILE;
#N canvas 0 22 794 511 STATS 0;
#X obj 199 2 inlet;
#X obj 410 459 outlet;
#X floatatom 202 121 0 0 0 0 num_downloads - -;
#X floatatom 202 143 0 0 0 0 avg_rating - -;
#X floatatom 202 165 0 0 0 0 num_ratings - -;
#X floatatom 202 187 0 0 0 0 num_comments - -;
#X obj 195 443 outlet;
#X obj 102 102 bng 15 250 50 0 empty empty empty 17 7 0 10 -262144
-1 -1;
#X obj 102 290 t a a a a a a, f 6;
#X obj 307 281 list prepend num_downloads;
#X obj 307 304 list prepend avg_rating;
#X obj 307 327 list prepend num_ratings;
#X obj 307 350 list prepend num_comments;
#X obj 199 25 route num_downloads avg_rating num_ratings num_comments
, f 24;
#X connect 0 0 13 0;
#X connect 2 0 9 0;
#X connect 3 0 10 0;
#X connect 4 0 11 0;
#X connect 5 0 12 0;
#X connect 7 0 8 0;
#X connect 8 2 2 0;
#X connect 8 3 3 0;
#X connect 8 4 4 0;
#X connect 8 5 5 0;
#X connect 9 0 6 0;
#X connect 10 0 6 0;
#X connect 11 0 6 0;
#X connect 12 0 6 0;
#X connect 13 0 2 0;
#X connect 13 1 3 0;
#X connect 13 2 4 0;
#X connect 13 3 5 0;
#X connect 13 4 1 0;
#X coords 0 -1 1 1 196 181 1 100 100;
#X restore 199 117 pd STATS;
#X obj 196 301 t a;
#X obj 197 301 t a;
#N canvas 0 22 965 470 DEFAULT 0;
#X obj 101 16 inlet;
#X floatatom 193 101 0 0 0 0 id - -;
#X obj 172 68 symbol;
#X symbolatom 134 120 66 0 0 0 name - -;
#X obj 719 361 outlet;
#X obj 103 102 bng 15 250 50 0 empty empty empty 17 7 0 10 -262144
-1 -1;
#X obj 254 395 outlet;
#X symbolatom 169 138 61 0 0 0 pack_name - -;
#X obj 223 68 symbol;
#X obj 333 220 list prepend id;
#X obj 333 248 list prepend name;
#X obj 331 273 list prepend pack_name;
#X obj 333 70 symbol;
#X symbolatom 498 102 14 0 0 0 username - -;
#X symbolatom 295 101 0 0 0 0 created - -;
#X obj 277 70 symbol;
#X obj 375 344 list prepend username;
#X obj 383 311 list prepend created;
#X obj 100 39 route id name pack_name created username;
#X obj 724 74 t a;
#X obj 21 64 t a a a a a;
#X connect 0 0 18 0;
#X connect 1 0 9 0;
#X connect 2 0 3 0;
#X connect 3 0 10 0;
#X connect 5 0 20 0;
#X connect 7 0 11 0;
#X connect 8 0 7 0;
#X connect 9 0 6 0;
#X connect 10 0 6 0;
#X connect 11 0 6 0;
#X connect 12 0 13 0;
#X connect 13 0 16 0;
#X connect 14 0 17 0;
#X connect 15 0 14 0;
#X connect 16 0 6 0;
#X connect 17 0 6 0;
#X connect 18 0 1 0;
#X connect 18 1 2 0;
#X connect 18 2 8 0;
#X connect 18 3 15 0;
#X connect 18 4 12 0;
#X connect 18 5 19 0;
#X connect 19 0 4 0;
#X connect 20 0 1 0;
#X connect 20 1 14 0;
#X connect 20 2 3 0;
#X connect 20 3 13 0;
#X connect 20 4 7 0;
#X coords 0 -1 1 1 498 57 1 100 100;
#X restore 50 60 pd DEFAULT;
#N canvas 252 30 800 619 METADATA 0;
#X obj 513 123 bng 15 250 50 0 empty empty tags 17 7 0 10 -262144 -1
-1;
#X msg 63 360 click;
#X obj 63 384 s \$0-tags;
#X obj 513 141 bng 15 250 50 0 empty empty geotags 17 7 0 10 -262144
-1 -1;
#X msg 133 360 click;
#X obj 513 159 bng 15 250 50 0 empty empty description 17 7 0 10 -262144
-1 -1;
#X msg 203 360 click;
#X obj 513 177 bng 15 250 50 0 empty empty previews 17 7 0 10 -262144
-1 -1;
#X msg 273 360 click;
#X obj 513 195 bng 15 250 50 0 empty empty images 17 7 0 10 -262144
-1 -1;
#X msg 343 360 click;
#X obj 513 213 bng 15 250 50 0 empty empty ac_analysis 17 7 0 10 -262144
-1 -1;
#X msg 413 360 click;
#X obj 513 231 bng 15 250 50 0 empty empty analysis 17 7 0 10 -262144
-1 -1;
#X msg 483 360 click;
#X obj 133 384 s \$0-geotag;
#X obj 203 384 s \$0-description;
#X obj 273 384 s \$0-previews;
#X obj 343 384 s \$0-images;
#X obj 413 384 s \$0-ac_analysis;
#X obj 483 384 s \$0-analysis;
#X obj 29 13 inlet;
#X obj 513 248 bng 15 250 50 0 empty empty links 17 7 0 10 -262144
-1 -1;
#X msg 593 360 click;
#X obj 593 384 s \$0-links;
#X obj 29 225 t a b;
#X obj 29 249 list;
#X obj 29 273 text set \$0-links;
#X msg 72 246 10000;
#X obj 133 228 text define \$0-links;
#X text 100 410 Put the rest on a 'links' text;
#X obj 29 62 _totext tags \$0 purest_json/json-decode;
#X obj 30 85 _totext geotag \$0 purest_json/json-decode;
#X obj 30 108 _totext description \$0 list;
#X obj 30 130 _totext previews \$0 purest_json/json-decode;
#X obj 30 154 _totext images \$0 purest_json/json-decode;
#X obj 30 177 _totext ac_analysis \$0 purest_json/json-decode;
#X obj 30 199 _totext analysis \$0 purest_json/json-decode;
#X connect 0 0 1 0;
#X connect 1 0 2 0;
#X connect 3 0 4 0;
#X connect 4 0 15 0;
#X connect 5 0 6 0;
#X connect 6 0 16 0;
#X connect 7 0 8 0;
#X connect 8 0 17 0;
#X connect 9 0 10 0;
#X connect 10 0 18 0;
#X connect 11 0 12 0;
#X connect 12 0 19 0;
#X connect 13 0 14 0;
#X connect 14 0 20 0;
#X connect 21 0 31 0;
#X connect 22 0 23 0;
#X connect 23 0 24 0;
#X connect 25 0 26 0;
#X connect 25 1 28 0;
#X connect 26 0 27 0;
#X connect 28 0 27 1;
#X connect 31 0 32 0;
#X connect 32 0 33 0;
#X connect 33 0 34 0;
#X connect 34 0 35 0;
#X connect 35 0 36 0;
#X connect 36 0 37 0;
#X connect 37 0 25 0;
#X coords 0 -1 1 1 153 181 1 500 100;
#X restore 395 117 pd METADATA;
#X obj 49 396 outlet;
#X obj 51 371 list trim;
#X obj 51 308 list prepend DEFAULT;
#X obj 62 327 list prepend FILE;
#X obj 78 348 list prepend STATS;
#X obj 369 22 declare -path purest_json;
#N canvas 0 22 450 300 clear_first 0;
#X msg 55 166 clear;
#X obj 56 193 s \$0-links;
#X obj 51 38 route bang;
#X obj 51 122 t b b;
#X msg 91 121 0;
#X obj 51 98 spigot 1;
#X msg 37 66 1;
#X obj 95 63 t a b;
#X obj 53 8 inlet;
#X obj 264 233 outlet;
#X connect 0 0 1 0;
#X connect 2 0 6 0;
#X connect 2 1 7 0;
#X connect 3 0 0 0;
#X connect 3 1 4 0;
#X connect 4 0 5 1;
#X connect 5 0 3 0;
#X connect 6 0 5 1;
#X connect 7 0 9 0;
#X connect 7 1 5 0;
#X connect 8 0 2 0;
#X restore 48 37 pd clear_first;
#X text 344 368 see fs_parse_info-help.pd;
#X connect 0 0 13 0;
#X connect 1 0 10 0;
#X connect 1 1 3 0;
#X connect 2 0 11 0;
#X connect 2 1 6 0;
#X connect 3 0 4 0;
#X connect 4 0 2 0;
#X connect 5 0 9 0;
#X connect 5 1 1 0;
#X connect 8 0 7 0;
#X connect 9 0 8 0;
#X connect 10 0 8 0;
#X connect 11 0 8 0;
#X connect 13 0 5 0;
#X coords 0 -1 1 1 498 238 2 50 60;
