#N canvas 453 258 663 487 10;
#X declare -lib purest_json;
#X obj 73 1 json-decode;
#X obj 73 28 list trim;
#X obj 73 55 route sounds;
#X obj 73 82 json-decode;
#X obj 73 109 list trim;
#X obj 73 -26 rest;
#X obj 41 187 outlet;
#X obj 41 162 bng 15 250 50 0 empty empty empty 17 7 0 10 -262144 -1
-1;
#X obj 68 162 s \$0-filelist;
#X obj 30 -76 inlet;
#X obj 323 -40 inlet;
#X obj 439 136 + 1;
#X msg 502 76 -1;
#X obj 297 46 t b b b;
#X obj 415 45 t b b b;
#X msg 349 75 1;
#X obj 297 19 route next;
#X obj 382 19 route prev;
#X obj 476 19 route load;
#X obj 566 14 route stop;
#X obj 317 137 int 0;
#X obj 440 167 s \$0-current;
#X obj 568 44 s \$0-stop;
#X obj 177 356 outlet;
#X obj 229 83 s \$0-preview;
#X obj 477 45 s \$0-download;
#X obj 212 243 list append;
#X obj 176 283 zl reg;
#X obj 317 243 t l;
#X obj 177 310 zl nth;
#X obj 204 163 r \$0-filelist;
#X obj 246 283 r \$0-current;
#X obj 125 243 r \$0-preview;
#X obj 204 190 route id;
#N canvas 282 22 1110 664 preview 0;
#X obj 400 80 route preview-lq-ogg;
#X obj 400 107 list append;
#X obj 382 159 zl reg;
#X obj 506 106 t l;
#X obj 382 186 zl nth;
#X obj 431 404 shell;
#X obj 561 320 prepend curl;
#X obj 496 562 oggread~;
#X msg 459 467 start;
#X obj 459 440 t b b;
#X obj 496 589 dac~;
#X obj 330 404 print shell;
#X obj 401 349 prepend;
#X obj 382 213 symbol;
#X obj 382 240 t b s;
#X msg 261 106 list;
#X msg 557 533 stop;
#X msg 401 322 -o /tmp/fs_preview\$1.ogg;
#X obj 557 506 r \$0-stop;
#X obj 396 21 r \$0-filelist;
#X obj 451 159 r \$0-current;
#X obj 314 106 r \$0-preview;
#X obj 266 53 t b;
#X msg 513 467 open /tmp/fs_preview\$1.ogg;
#X obj 401 295 float \$0;
#X obj 513 440 float \$0;
#X obj 248 24 inlet;
#X connect 0 0 1 0;
#X connect 1 0 2 1;
#X connect 1 0 3 0;
#X connect 2 0 4 0;
#X connect 3 0 1 1;
#X connect 4 0 13 0;
#X connect 5 1 9 0;
#X connect 6 0 12 1;
#X connect 7 0 10 0;
#X connect 7 1 10 1;
#X connect 8 0 7 0;
#X connect 9 0 8 0;
#X connect 9 1 25 0;
#X connect 12 0 5 0;
#X connect 12 0 11 0;
#X connect 13 0 14 0;
#X connect 14 0 24 0;
#X connect 14 1 6 0;
#X connect 15 0 2 0;
#X connect 16 0 7 0;
#X connect 17 0 12 0;
#X connect 18 0 16 0;
#X connect 19 0 0 0;
#X connect 20 0 4 1;
#X connect 21 0 2 0;
#X connect 22 0 15 0;
#X connect 23 0 7 0;
#X connect 24 0 17 0;
#X connect 25 0 23 0;
#X connect 26 0 22 0;
#X restore 157 -23 pd preview;
#N canvas 469 22 704 645 load 0;
#X obj -138 70 route original_filename;
#X obj -1 107 t l;
#X obj -103 107 list append;
#X obj -151 150 zl reg;
#X msg -145 109 list;
#X obj 365 92 list append;
#X obj 334 136 zl reg;
#X msg 315 82 list;
#X obj 364 63 route serve;
#X obj 380 177 zl nth;
#X obj 17 363 prepend curl;
#X obj -156 174 zl nth;
#X obj -81 364 prepend -o;
#X obj -29 415 prepend;
#X obj 449 88 t l;
#X obj 12 272 prepend;
#X obj 108 290 symbol;
#X obj 109 263 loadbang;
#X obj 170 142 prepend ?api_key=;
#X obj 93 208 symbol;
#X obj 110 144 symbol;
#X obj 109 169 makesymbol ?api_key=%s;
#X obj -45 449 shell;
#X obj -9 607 soundfiler;
#X obj 34 537 prepend read -resize;
#X obj -26 514 symbol;
#X obj -4 570 prepend;
#X obj -26 483 t b b;
#X obj 72 45 t b a b b;
#X obj -164 199 list;
#X obj -162 231 s2l;
#X obj -160 258 l2s _;
#X obj -65 310 symbol;
#X obj -158 286 prepend /tmp/;
#X obj -84 335 l2s;
#X obj 18 326 l2s;
#X obj -62 284 loadbang;
#X obj 362 27 r \$0-filelist;
#X obj -137 35 r \$0-filelist;
#X obj 67 71 s \$0-ar;
#X obj 41 400 r \$0-ar;
#X obj 13 71 s \$0-fn;
#X obj -198 109 r \$0-fn;
#X obj 39 430 l2s;
#X obj 112 116 r \$0-api_key;
#X obj -191 68 r \$0-reset;
#X obj 295 48 r \$0-reset;
#X obj 74 15 r \$0-download;
#X obj -109 420 s \$0-fname;
#X obj 47 509 r \$0-fname;
#X obj -98 151 r \$0-current;
#X obj 413 145 r \$0-current;
#X obj -104 555 print request;
#X connect 0 0 2 0;
#X connect 1 0 2 1;
#X connect 2 0 1 0;
#X connect 2 0 3 1;
#X connect 3 0 11 0;
#X connect 4 0 3 0;
#X connect 5 0 6 1;
#X connect 5 0 14 0;
#X connect 6 0 9 0;
#X connect 7 0 6 0;
#X connect 8 0 5 0;
#X connect 9 0 15 1;
#X connect 10 0 13 1;
#X connect 11 0 29 0;
#X connect 12 0 13 0;
#X connect 13 0 22 0;
#X connect 13 0 52 0;
#X connect 14 0 5 1;
#X connect 15 0 35 0;
#X connect 16 0 35 1;
#X connect 17 0 16 0;
#X connect 19 0 15 0;
#X connect 20 0 21 0;
#X connect 21 0 19 1;
#X connect 22 1 27 0;
#X connect 24 0 26 1;
#X connect 25 0 26 0;
#X connect 26 0 23 0;
#X connect 27 0 25 0;
#X connect 28 0 41 0;
#X connect 28 1 39 0;
#X connect 28 2 19 0;
#X connect 28 3 6 0;
#X connect 29 0 30 0;
#X connect 30 0 31 0;
#X connect 31 0 33 0;
#X connect 32 0 34 1;
#X connect 33 0 34 0;
#X connect 34 0 12 0;
#X connect 34 0 48 0;
#X connect 35 0 10 0;
#X connect 36 0 32 0;
#X connect 37 0 8 0;
#X connect 38 0 0 0;
#X connect 40 0 43 0;
#X connect 42 0 3 0;
#X connect 43 0 25 1;
#X connect 44 0 20 0;
#X connect 45 0 4 0;
#X connect 46 0 7 0;
#X connect 47 0 28 0;
#X connect 49 0 24 0;
#X connect 50 0 11 1;
#X connect 51 0 9 1;
#X restore 403 244 pd load;
#X obj 31 -50 route api_key;
#X obj -9 -23 s \$0-api_key;
#X obj 180 331 float;
#X msg 414 102 0;
#X obj 420 76 r \$0-reset;
#X obj 156 3 print request;
#X obj 514 -54 import purest_json;
#X connect 0 0 1 0;
#X connect 1 0 2 0;
#X connect 2 0 3 0;
#X connect 3 0 4 0;
#X connect 4 0 7 0;
#X connect 4 0 8 0;
#X connect 5 0 0 0;
#X connect 7 0 6 0;
#X connect 9 0 36 0;
#X connect 10 0 16 0;
#X connect 10 0 18 0;
#X connect 10 0 19 0;
#X connect 10 0 17 0;
#X connect 11 0 20 1;
#X connect 11 0 21 0;
#X connect 12 0 11 1;
#X connect 13 0 24 0;
#X connect 13 1 20 0;
#X connect 13 2 15 0;
#X connect 14 0 24 0;
#X connect 14 1 20 0;
#X connect 14 2 12 0;
#X connect 15 0 11 1;
#X connect 16 0 13 0;
#X connect 17 0 14 0;
#X connect 18 0 25 0;
#X connect 19 0 22 0;
#X connect 20 0 11 0;
#X connect 26 0 27 1;
#X connect 26 0 28 0;
#X connect 27 0 29 0;
#X connect 28 0 26 1;
#X connect 29 0 38 0;
#X connect 30 0 33 0;
#X connect 31 0 29 1;
#X connect 32 0 27 0;
#X connect 33 0 26 0;
#X connect 36 0 37 0;
#X connect 36 1 5 0;
#X connect 36 1 34 0;
#X connect 36 1 41 0;
#X connect 38 0 23 0;
#X connect 39 0 20 1;
#X connect 40 0 39 0;
