#N canvas 192 85 978 641 10;
#X declare -lib purest_json -lib cyclone -lib list-abs -lib zexy -lib
pdogg;
#X obj 71 20 json-decode;
#X obj 71 47 list trim;
#X obj 71 74 route sounds;
#X obj 71 101 json-decode;
#X obj 71 128 list trim;
#X obj 71 -7 rest;
#X obj 71 210 outlet;
#X obj 98 188 s \$0-filelist;
#X obj -4 -137 inlet;
#X obj 408 -108 inlet;
#X obj 431 115 + 1;
#X msg 583 73 -1;
#X obj 378 -31 t b b b;
#X obj 485 -29 t b b b;
#X msg 417 49 1;
#X obj 431 142 s \$0-current;
#X obj 653 -24 s \$0-stop;
#X obj 314 15 s \$0-preview;
#X obj 562 -23 s \$0-download;
#X obj 254 217 zl reg;
#X obj 332 148 t l;
#X obj 254 242 zl nth;
#X obj 287 95 r \$0-filelist;
#X obj 331 215 r \$0-current;
#X obj 210 175 r \$0-preview;
#X obj 287 122 route id;
#N canvas 223 51 1110 664 preview 0;
#X obj 400 80 route preview-lq-ogg;
#X obj 367 144 zl reg;
#X obj 439 107 t l;
#X obj 367 186 zl nth;
#X obj 436 529 oggread~;
#X msg 388 445 start;
#X obj 388 389 t b b;
#X obj 436 556 dac~;
#X obj 367 213 symbol;
#X msg 248 79 list;
#X msg 497 500 stop;
#X obj 497 473 r \$0-stop;
#X obj 400 21 r \$0-filelist;
#X obj 580 94 r \$0-current;
#X obj 310 27 r \$0-preview;
#X obj 248 53 t b;
#X msg 436 444 open /tmp/fs_preview\$1.ogg;
#X obj 248 24 inlet;
#X obj 400 107 list;
#X obj 580 124 t f f f;
#X obj 429 270 f \$0;
#X obj 436 417 f \$0;
#X obj 367 332 rest;
#X obj 367 240 t s b;
#X msg 367 268 GET \$1;
#X obj 535 386 print http-error-preview;
#X obj 388 356 route bang;
#X msg 429 295 file /tmp/fs_preview\$1.ogg;
#X connect 0 0 18 0;
#X connect 1 0 3 0;
#X connect 2 0 18 1;
#X connect 3 0 8 0;
#X connect 4 0 7 0;
#X connect 4 1 7 1;
#X connect 5 0 4 0;
#X connect 6 0 5 0;
#X connect 6 1 21 0;
#X connect 8 0 23 0;
#X connect 9 0 1 0;
#X connect 10 0 4 0;
#X connect 11 0 10 0;
#X connect 12 0 0 0;
#X connect 13 0 19 0;
#X connect 14 0 1 0;
#X connect 15 0 9 0;
#X connect 16 0 4 0;
#X connect 17 0 15 0;
#X connect 18 0 1 1;
#X connect 18 0 2 0;
#X connect 19 0 3 1;
#X connect 19 1 20 1;
#X connect 19 2 21 1;
#X connect 20 0 27 0;
#X connect 21 0 16 0;
#X connect 22 1 26 0;
#X connect 23 0 24 0;
#X connect 23 1 20 0;
#X connect 24 0 22 0;
#X connect 26 0 6 0;
#X connect 26 1 25 0;
#X connect 27 0 22 0;
#X restore 134 -57 pd preview;
#N canvas 578 51 686 713 load 0;
#X obj 186 159 zl reg;
#X obj 261 121 t l;
#X obj 186 201 zl nth;
#X obj 186 228 symbol;
#X obj 219 36 r \$0-filelist;
#X obj 323 149 r \$0-current;
#X obj 219 122 list;
#X obj 294 432 rest;
#X obj 315 504 route bang;
#X obj 219 67 route original_filename;
#X obj 129 38 r \$0-download;
#X obj 315 560 symbol;
#X msg 432 341 file /tmp/\$1;
#X obj 378 225 r \$0-api_key;
#X obj 315 650 soundfiler;
#X obj 315 596 pack s s;
#X obj 315 533 bng 15 250 50 0 empty empty empty 17 7 0 10 -262144
-1 -1;
#X msg 315 625 read -resize /tmp/\$1 \$2;
#X obj 129 72 t b a;
#X obj 486 418 symbol;
#X obj 219 96 l2s _;
#X obj 378 253 symbol;
#X msg 294 377 GET http://www.freesound.org/api/sounds/\$1/serve?api_key=\$2
;
#X obj 462 544 print http-error-dl;
#X obj 294 327 f;
#X obj 319 195 r \$0-id;
#X obj 186 255 t b s s;
#X obj 294 351 pack f s;
#X connect 0 0 2 0;
#X connect 1 0 6 1;
#X connect 2 0 3 0;
#X connect 3 0 26 0;
#X connect 4 0 9 0;
#X connect 5 0 2 1;
#X connect 6 0 0 1;
#X connect 6 0 1 0;
#X connect 7 1 8 0;
#X connect 8 0 16 0;
#X connect 8 1 23 0;
#X connect 9 0 20 0;
#X connect 10 0 18 0;
#X connect 11 0 15 0;
#X connect 12 0 7 0;
#X connect 13 0 21 0;
#X connect 15 0 17 0;
#X connect 16 0 11 0;
#X connect 17 0 14 0;
#X connect 18 0 0 0;
#X connect 18 1 19 0;
#X connect 19 0 15 1;
#X connect 20 0 6 0;
#X connect 21 0 27 1;
#X connect 22 0 7 0;
#X connect 24 0 27 0;
#X connect 25 0 24 1;
#X connect 26 0 24 0;
#X connect 26 1 12 0;
#X connect 26 2 11 1;
#X connect 27 0 22 0;
#X restore 655 150 pd load;
#X obj -4 -111 route api_key;
#X obj -4 -62 s \$0-api_key;
#X msg 467 68 0;
#X obj 467 41 r \$0-reset;
#X obj 117 -4 print request;
#X obj 287 148 list;
#X obj 254 264 f;
#X obj 397 114 f;
#X obj 408 -81 route next prev load stop;
#X obj -4 -88 symbol;
#X obj 71 155 t b a;
#X obj 307 317 s \$0-id;
#X obj 254 288 t f f;
#X obj 254 316 outlet;
#X obj 507 -124 import purest_json cyclone list-abs zexy pdogg;
#X connect 0 0 1 0;
#X connect 1 0 2 0;
#X connect 2 0 3 0;
#X connect 3 0 4 0;
#X connect 4 0 38 0;
#X connect 5 0 0 0;
#X connect 8 0 28 0;
#X connect 9 0 36 0;
#X connect 10 0 15 0;
#X connect 10 0 35 1;
#X connect 11 0 10 1;
#X connect 12 0 17 0;
#X connect 12 1 35 0;
#X connect 12 2 14 0;
#X connect 13 0 17 0;
#X connect 13 1 35 0;
#X connect 13 2 11 0;
#X connect 14 0 10 1;
#X connect 19 0 21 0;
#X connect 20 0 33 1;
#X connect 21 0 34 0;
#X connect 22 0 25 0;
#X connect 23 0 21 1;
#X connect 24 0 19 0;
#X connect 25 0 33 0;
#X connect 28 0 37 0;
#X connect 28 1 5 0;
#X connect 28 1 32 0;
#X connect 28 1 26 0;
#X connect 30 0 35 1;
#X connect 31 0 30 0;
#X connect 33 0 19 1;
#X connect 33 0 20 0;
#X connect 34 0 40 0;
#X connect 35 0 10 0;
#X connect 36 0 12 0;
#X connect 36 1 13 0;
#X connect 36 2 18 0;
#X connect 36 3 16 0;
#X connect 37 0 29 0;
#X connect 38 0 6 0;
#X connect 38 1 7 0;
#X connect 40 0 41 0;
#X connect 40 1 39 0;
