#N canvas 311 24 706 613 12;
#X obj 42 568 outlet;
#X obj 42 24 inlet;
#X obj 284 23 inlet;
#X obj 42 236 purest_json/json-decode;
#X obj 42 351 purest_json/json-decode;
#X obj 42 213 purest_json/rest;
#X obj 74 478 t a b;
#X msg 118 479 1e+09;
#X obj 42 260 list trim;
#X obj 97 316 print count;
#X obj 259 97 list;
#X obj 89 98 symbol;
#X msg 259 121 symbol \$1&token=\$2;
#X obj 74 416 list split 1;
#X obj 126 443 cyclone/tosymbol;
#X obj 74 441 list;
#X obj 284 62 symbol;
#X obj 42 284 route results count next;
#X obj 42 127 list prepend GET;
#X obj 42 151 list trim;
#X obj 42 73 route GET next;
#X obj 42 378 t b a;
#X obj 42 182 t a a;
#X obj 93 182 print QUERY_URL;
#X obj 74 502 text set \$1;
#X connect 1 0 20 0;
#X connect 2 0 16 0;
#X connect 3 0 8 0;
#X connect 4 0 21 0;
#X connect 5 0 3 0;
#X connect 6 0 24 0;
#X connect 6 1 7 0;
#X connect 7 0 24 1;
#X connect 8 0 17 0;
#X connect 10 0 12 0;
#X connect 11 0 18 0;
#X connect 12 0 11 1;
#X connect 13 0 15 0;
#X connect 13 1 14 0;
#X connect 14 0 15 1;
#X connect 15 0 6 0;
#X connect 16 0 10 1;
#X connect 17 0 4 0;
#X connect 17 1 9 0;
#X connect 17 2 10 0;
#X connect 18 0 19 0;
#X connect 19 0 22 0;
#X connect 20 0 18 0;
#X connect 20 1 11 0;
#X connect 21 0 0 0;
#X connect 21 1 13 0;
#X connect 22 0 5 0;
#X connect 22 1 23 0;
