#N canvas 204 97 978 641 10;
#X declare -lib purest_json -lib cyclone -lib list-abs -lib zexy;
#X obj 71 20 json-decode;
#X obj 71 47 list trim;
#X obj 71 74 route sounds;
#X obj 71 101 json-decode;
#X obj 71 128 list trim;
#X obj 71 -7 rest;
#X obj 8 200 outlet;
#X obj 8 175 bng 15 250 50 0 empty empty empty 17 7 0 10 -262144 -1
-1;
#X obj 88 167 s \$0-filelist;
#X obj -4 -137 inlet;
#X obj 408 -108 inlet;
#X obj 431 115 + 1;
#X msg 583 73 -1;
#X obj 378 -31 t b b b;
#X obj 485 -29 t b b b;
#X msg 417 49 1;
#X obj 431 142 s \$0-current;
#X obj 653 -24 s \$0-stop;
#X obj 254 288 outlet;
#X obj 314 15 s \$0-preview;
#X obj 562 -23 s \$0-download;
#X obj 254 217 zl reg;
#X obj 332 148 t l;
#X obj 254 242 zl nth;
#X obj 287 95 r \$0-filelist;
#X obj 331 215 r \$0-current;
#X obj 210 175 r \$0-preview;
#X obj 287 122 route id;
#N canvas 241 51 1110 664 preview 0;
#X obj 400 80 route preview-lq-ogg;
#X obj 367 144 zl reg;
#X obj 442 106 t l;
#X obj 367 186 zl nth;
#X obj 367 357 shell;
#X obj 442 530 oggread~;
#X msg 394 446 start;
#X obj 394 380 t b b;
#X obj 442 557 dac~;
#X obj 249 379 print shell;
#X obj 367 213 symbol;
#X obj 367 240 t b s;
#X msg 248 79 list;
#X msg 503 501 stop;
#X obj 503 474 r \$0-stop;
#X obj 400 21 r \$0-filelist;
#X obj 456 143 r \$0-current;
#X obj 310 27 r \$0-preview;
#X obj 248 53 t b;
#X msg 442 445 open /tmp/fs_preview\$1.ogg;
#X obj 367 268 float \$0;
#X obj 442 418 float \$0;
#X obj 248 24 inlet;
#X obj 400 107 list;
#X obj 367 296 pack f s;
#X msg 367 326 curl \$2 -o /tmp/fs_preview\$1.ogg;
#X connect 0 0 23 0;
#X connect 1 0 3 0;
#X connect 2 0 23 1;
#X connect 3 0 10 0;
#X connect 4 1 7 0;
#X connect 5 0 8 0;
#X connect 5 1 8 1;
#X connect 6 0 5 0;
#X connect 7 0 6 0;
#X connect 7 1 21 0;
#X connect 10 0 11 0;
#X connect 11 0 20 0;
#X connect 11 1 24 1;
#X connect 12 0 1 0;
#X connect 13 0 5 0;
#X connect 14 0 13 0;
#X connect 15 0 0 0;
#X connect 16 0 3 1;
#X connect 16 0 20 1;
#X connect 16 0 21 1;
#X connect 17 0 1 0;
#X connect 18 0 12 0;
#X connect 19 0 5 0;
#X connect 20 0 24 0;
#X connect 21 0 19 0;
#X connect 22 0 18 0;
#X connect 23 0 1 1;
#X connect 23 0 2 0;
#X connect 24 0 25 0;
#X connect 25 0 4 0;
#X connect 25 0 9 0;
#X restore 134 -57 pd preview;
#N canvas 195 51 970 665 load 0;
#X obj 121 81 route original_filename;
#X obj 157 113 t l;
#X obj -17 147 zl reg;
#X msg -17 99 list;
#X obj 556 138 zl reg;
#X msg 519 79 list;
#X obj 589 68 route serve;
#X obj 556 196 zl nth;
#X obj -17 177 zl nth;
#X obj 629 96 t l;
#X obj 371 173 symbol;
#X obj 179 454 shell;
#X obj 206 612 soundfiler;
#X obj 263 542 prepend read -resize;
#X obj 206 519 symbol;
#X obj 206 575 prepend;
#X obj 206 488 t b b;
#X obj 337 47 t b a b b;
#X obj -17 202 list;
#X obj -17 230 s2l;
#X obj -17 254 l2s _;
#X obj 589 35 r \$0-filelist;
#X obj 121 54 r \$0-filelist;
#X obj 318 121 s \$0-ar;
#X obj 263 405 r \$0-ar;
#X obj 266 120 s \$0-fn;
#X obj -70 99 r \$0-fn;
#X obj 263 435 l2s;
#X obj 404 96 r \$0-api_key;
#X obj -17 71 r \$0-reset;
#X obj 519 53 r \$0-reset;
#X obj 337 17 r \$0-download;
#X obj -17 335 s \$0-fname;
#X obj 263 514 r \$0-fname;
#X obj 33 147 r \$0-current;
#X obj 589 164 r \$0-current;
#X obj 57 536 print request;
#X msg 404 122 ?api_key=\$1;
#X obj 589 97 list;
#X msg 371 296 curl \$2\$1;
#X obj 179 397 pack s s;
#X obj 371 270 pack s s;
#X msg 179 422 \$2 -o \$1;
#X obj 121 112 list;
#X msg -17 284 /tmp/\$1;
#X obj 404 148 symbol;
#X connect 0 0 43 0;
#X connect 1 0 43 1;
#X connect 2 0 8 0;
#X connect 3 0 2 0;
#X connect 4 0 7 0;
#X connect 5 0 4 0;
#X connect 6 0 38 0;
#X connect 7 0 41 1;
#X connect 8 0 18 0;
#X connect 9 0 38 1;
#X connect 10 0 41 0;
#X connect 11 1 16 0;
#X connect 13 0 15 1;
#X connect 14 0 15 0;
#X connect 15 0 12 0;
#X connect 16 0 14 0;
#X connect 17 0 25 0;
#X connect 17 1 23 0;
#X connect 17 2 10 0;
#X connect 17 3 4 0;
#X connect 18 0 19 0;
#X connect 19 0 20 0;
#X connect 20 0 44 0;
#X connect 21 0 6 0;
#X connect 22 0 0 0;
#X connect 24 0 27 0;
#X connect 26 0 2 0;
#X connect 27 0 14 1;
#X connect 28 0 37 0;
#X connect 29 0 3 0;
#X connect 30 0 5 0;
#X connect 31 0 17 0;
#X connect 33 0 13 0;
#X connect 34 0 8 1;
#X connect 35 0 7 1;
#X connect 37 0 45 0;
#X connect 38 0 4 1;
#X connect 38 0 9 0;
#X connect 39 0 40 1;
#X connect 40 0 42 0;
#X connect 41 0 39 0;
#X connect 42 0 11 0;
#X connect 42 0 36 0;
#X connect 43 0 1 0;
#X connect 43 0 2 1;
#X connect 44 0 40 0;
#X connect 44 0 32 0;
#X connect 45 0 10 1;
#X restore 655 150 pd load;
#X obj -4 -111 route api_key;
#X obj -4 -62 s \$0-api_key;
#X msg 467 68 0;
#X obj 467 41 r \$0-reset;
#X obj 117 -4 print request;
#X obj 71 196 print;
#X obj 287 148 list;
#X obj 254 264 f;
#X obj 397 114 f;
#X obj 408 -81 route next prev load stop;
#X obj 506 -124 import purest_json cyclone list-abs zexy;
#X obj -4 -88 symbol;
#X connect 0 0 1 0;
#X connect 1 0 2 0;
#X connect 2 0 3 0;
#X connect 3 0 4 0;
#X connect 4 0 7 0;
#X connect 4 0 8 0;
#X connect 4 0 35 0;
#X connect 5 0 0 0;
#X connect 7 0 6 0;
#X connect 9 0 30 0;
#X connect 10 0 39 0;
#X connect 11 0 16 0;
#X connect 11 0 38 1;
#X connect 12 0 11 1;
#X connect 13 0 19 0;
#X connect 13 1 38 0;
#X connect 13 2 15 0;
#X connect 14 0 19 0;
#X connect 14 1 38 0;
#X connect 14 2 12 0;
#X connect 15 0 11 1;
#X connect 21 0 23 0;
#X connect 22 0 36 1;
#X connect 23 0 37 0;
#X connect 24 0 27 0;
#X connect 25 0 23 1;
#X connect 26 0 21 0;
#X connect 27 0 36 0;
#X connect 30 0 41 0;
#X connect 30 1 5 0;
#X connect 30 1 34 0;
#X connect 30 1 28 0;
#X connect 32 0 38 1;
#X connect 33 0 32 0;
#X connect 36 0 21 1;
#X connect 36 0 22 0;
#X connect 37 0 18 0;
#X connect 38 0 11 0;
#X connect 39 0 13 0;
#X connect 39 1 14 0;
#X connect 39 2 20 0;
#X connect 39 3 17 0;
#X connect 41 0 31 0;
