#N canvas 916 373 432 220 10;
#X declare -lib purest_json -lib zexy -lib cyclone;
#X obj 20 44 cnv 15 380 20 empty \$0-user User:\ LoopPacks 20 12 0
10 -233017 -66577 0;
#X obj 19 20 cnv 15 380 20 empty \$0-name Name:\ dubstep8.wav 20 12
0 9 -233017 -66577 0;
#N canvas 54 51 1032 713 get_sound_data 0;
#X obj 196 -146 inlet;
#X obj 196 -84 route api_key;
#X obj 129 76 urlparams;
#X obj 72 -90 route float;
#X obj 129 218 json-decode;
#X obj 129 244 list trim;
#X obj 129 191 rest;
#X obj 178 189 print request;
#X obj 446 158 s \$0-user;
#X obj 446 129 prepend label;
#X obj 446 -54 json-decode;
#X obj 446 -5 route username;
#X obj 446 -30 list trim;
#X obj 446 -81 l2s;
#X obj 129 271 s \$0-metadata;
#X obj 446 -133 r \$0-metadata;
#X obj 579 162 s \$0-name;
#X obj 579 37 l2s;
#X obj 697 166 s \$0-tags;
#X obj 813 164 s \$0-description;
#X msg 72 27 clear;
#X obj 72 -60 t b b b f;
#X obj 163 -8 symbol;
#X msg 163 24 add api_key \$1;
#X obj 129 104 pack s f;
#X msg 129 135 GET http://www.freesound.org/api/sounds/\$2/?\$1;
#X obj 446 -105 route user original_filename tags description;
#X msg 579 65 label \$1;
#X msg 579 10 Name: \$1;
#X obj 697 41 l2s;
#X msg 697 69 label \$1;
#X msg 697 14 Tags: \$1;
#X obj 813 39 l2s;
#X msg 813 67 label \$1;
#X obj 813 -13 l2s;
#X msg 813 12 Description: \$1;
#X obj 697 -15 l2s;
#X obj 579 -19 l2s;
#X obj 446 77 l2s;
#X msg 446 105 label \$1;
#X obj 446 21 l2s;
#X msg 446 49 User: \$1;
#X connect 0 0 1 0;
#X connect 0 0 3 0;
#X connect 1 0 22 0;
#X connect 2 0 24 0;
#X connect 3 0 21 0;
#X connect 4 0 5 0;
#X connect 5 0 14 0;
#X connect 6 0 4 0;
#X connect 9 0 8 0;
#X connect 10 0 12 0;
#X connect 11 0 40 0;
#X connect 12 0 11 0;
#X connect 13 0 10 0;
#X connect 15 0 26 0;
#X connect 17 0 27 0;
#X connect 20 0 2 0;
#X connect 21 0 20 0;
#X connect 21 1 2 0;
#X connect 21 2 22 0;
#X connect 21 3 24 1;
#X connect 22 0 23 0;
#X connect 23 0 2 0;
#X connect 24 0 25 0;
#X connect 25 0 6 0;
#X connect 25 0 7 0;
#X connect 26 0 13 0;
#X connect 26 1 37 0;
#X connect 26 2 36 0;
#X connect 26 3 34 0;
#X connect 27 0 16 0;
#X connect 28 0 17 0;
#X connect 29 0 30 0;
#X connect 30 0 18 0;
#X connect 31 0 29 0;
#X connect 32 0 33 0;
#X connect 33 0 19 0;
#X connect 34 0 35 0;
#X connect 35 0 32 0;
#X connect 36 0 31 0;
#X connect 37 0 28 0;
#X connect 38 0 39 0;
#X connect 39 0 9 0;
#X connect 40 0 41 0;
#X connect 41 0 38 0;
#X restore 5 159 pd get_sound_data;
#X obj 5 129 inlet;
#X obj 20 68 cnv 15 380 20 empty \$0-tags Tags:\ [\ "loop"\,\ "com"\,\ "dubstep"\,\ "looppacks"\,\ "bpm"\,\ "140"\ ]
20 12 0 10 -233017 -66577 0;
#X obj 20 92 cnv 15 380 20 empty \$0-description Description:\ This\ pack\ is\ jammed\ with\ hard\ hitting\ 140\ bpm\ dubstep\ drums\ vox\ and\ drops.\ Brought\ to\ you\ by\ LoopPacks.com.
20 12 0 10 -233017 -66577 0;
#X obj 128 159 import purest_json zexy cyclone;
#X connect 3 0 2 0;
#X coords 0 -1 1 1 410 125 1 5 0;
