#N canvas 430 207 626 425 12;
#X obj 130 47 inlet;
#X obj 177 272 outlet;
#X obj 51 217 print params;
#X obj 130 135 bng 15 250 50 0 empty empty empty 17 7 0 10 -262144
-1 -1;
#X obj 177 202 pack s f;
#X obj 177 104 symbol;
#X obj 130 71 route bang api_key float;
#X msg 177 132 add api_key \$1;
#X msg 177 239 GET http://www.freesound.org/api/sounds/\$2/similar/?\$1
;
#X obj 177 174 purest_json/urlparams;
#X connect 0 0 6 0;
#X connect 3 0 9 0;
#X connect 4 0 8 0;
#X connect 5 0 7 0;
#X connect 6 0 3 0;
#X connect 6 1 5 0;
#X connect 6 2 4 1;
#X connect 7 0 9 0;
#X connect 8 0 1 0;
#X connect 9 0 2 0;
#X connect 9 0 4 0;
