#N canvas 912 369 432 220 10;
#X declare -lib purest_json -lib zexy -lib cyclone;
#X obj 20 44 cnv 15 380 20 empty \$0-user User:\ Ongitak 20 12 0 10
-233017 -66577 0;
#X obj 19 20 cnv 15 380 20 empty \$0-name Name:\ B3\ Dubstep\ Loops\ 6\ -\ Drums\ Stem.wav
20 12 0 9 -233017 -66577 0;
#N canvas 50 51 1032 713 get_sound_data 0;
#X obj 195 -113 inlet;
#X obj 195 -51 route api_key;
#X obj 128 109 urlparams;
#X obj 71 -57 route float;
#X obj 128 251 json-decode;
#X obj 128 277 list trim;
#X obj 128 224 rest;
#X obj 177 222 print request;
#X obj 445 191 s \$0-user;
#X obj 445 -21 json-decode;
#X obj 445 28 route username;
#X obj 445 3 list trim;
#X obj 445 -48 l2s;
#X obj 128 304 s \$0-metadata;
#X obj 445 -100 r \$0-metadata;
#X obj 578 195 s \$0-name;
#X obj 578 70 l2s;
#X obj 696 199 s \$0-tags;
#X obj 812 197 s \$0-description;
#X msg 71 60 clear;
#X obj 71 -27 t b b b f;
#X obj 162 25 symbol;
#X msg 162 57 add api_key \$1;
#X obj 128 137 pack s f;
#X msg 128 168 GET http://www.freesound.org/api/sounds/\$2/?\$1;
#X obj 445 -72 route user original_filename tags description;
#X msg 578 98 label \$1;
#X msg 578 43 Name: \$1;
#X obj 696 74 l2s;
#X msg 696 102 label \$1;
#X msg 696 47 Tags: \$1;
#X obj 812 72 l2s;
#X msg 812 100 label \$1;
#X obj 812 20 l2s;
#X msg 812 45 Description: \$1;
#X obj 696 18 l2s;
#X obj 578 14 l2s;
#X obj 445 110 l2s;
#X msg 445 138 label \$1;
#X obj 445 54 l2s;
#X msg 445 82 User: \$1;
#X obj 601 248 loadbang;
#X obj 450 356 s \$0-user;
#X msg 450 303 label User:;
#X msg 531 303 label Name:;
#X obj 531 356 s \$0-name;
#X obj 621 352 s \$0-tags;
#X msg 621 299 label Tags:;
#X msg 716 306 label Description;
#X obj 716 354 s \$0-description;
#X connect 0 0 1 0;
#X connect 0 0 3 0;
#X connect 1 0 21 0;
#X connect 2 0 23 0;
#X connect 3 0 20 0;
#X connect 4 0 5 0;
#X connect 5 0 13 0;
#X connect 6 0 4 0;
#X connect 9 0 11 0;
#X connect 10 0 39 0;
#X connect 11 0 10 0;
#X connect 12 0 9 0;
#X connect 14 0 25 0;
#X connect 16 0 26 0;
#X connect 19 0 2 0;
#X connect 20 0 19 0;
#X connect 20 1 2 0;
#X connect 20 2 21 0;
#X connect 20 3 23 1;
#X connect 21 0 22 0;
#X connect 22 0 2 0;
#X connect 23 0 24 0;
#X connect 24 0 6 0;
#X connect 24 0 7 0;
#X connect 25 0 12 0;
#X connect 25 1 36 0;
#X connect 25 2 35 0;
#X connect 25 3 33 0;
#X connect 26 0 15 0;
#X connect 27 0 16 0;
#X connect 28 0 29 0;
#X connect 29 0 17 0;
#X connect 30 0 28 0;
#X connect 31 0 32 0;
#X connect 32 0 18 0;
#X connect 33 0 34 0;
#X connect 34 0 31 0;
#X connect 35 0 30 0;
#X connect 36 0 27 0;
#X connect 37 0 38 0;
#X connect 38 0 8 0;
#X connect 39 0 40 0;
#X connect 40 0 37 0;
#X connect 41 0 43 0;
#X connect 41 0 44 0;
#X connect 41 0 47 0;
#X connect 41 0 48 0;
#X connect 43 0 42 0;
#X connect 44 0 45 0;
#X connect 47 0 46 0;
#X connect 48 0 49 0;
#X restore 5 159 pd get_sound_data;
#X obj 5 129 inlet;
#X obj 20 68 cnv 15 380 20 empty \$0-tags Tags:\ [\ "beat"\,\ "drums"\,\ "dubstep"\,\ "loop"\ ]
20 12 0 10 -233017 -66577 0;
#X obj 20 92 cnv 15 380 20 empty \$0-description Description:\ 140\ bpm\ 8/4\ dubstep\ drum\ loop.Drumbeat\ made\ from\ edited/affected\ FL\ Studio\ samples.
20 12 0 10 -233017 -66577 0;
#X obj 128 159 import purest_json zexy cyclone;
#X connect 3 0 2 0;
#X coords 0 -1 1 1 410 125 1 5 0;
