#N canvas 440 117 651 547 12;
#X obj 71 10 inlet;
#X obj 71 391 list trim;
#X obj 92 302 print request;
#X obj 103 135 symbol;
#X obj 71 365 purest_json/json-decode;
#X obj 71 338 purest_json/rest;
#X obj 103 200 purest_json/urlparams;
#X obj 71 62 route float api_key;
#X obj 71 235 list;
#X obj 71 88 t f b;
#X msg 103 167 add token \$1 \, bang \, clear;
#X obj 142 107 symbol;
#X msg 71 271 GET https://www.freesound.org/apiv2/sounds/\$1/?\$2;
#X obj 409 382 fs_metadata description;
#X obj 409 406 fs_metadata tags;
#X obj 409 430 fs_metadata name;
#X obj 409 454 fs_metadata user;
#X obj 409 335 t b a;
#X obj 409 359 list;
#X obj 409 478 print more_data;
#X connect 0 0 7 0;
#X connect 1 0 17 0;
#X connect 3 0 10 0;
#X connect 4 0 1 0;
#X connect 5 0 4 0;
#X connect 6 0 8 1;
#X connect 7 0 9 0;
#X connect 7 1 11 0;
#X connect 8 0 12 0;
#X connect 9 0 8 0;
#X connect 9 1 3 0;
#X connect 10 0 6 0;
#X connect 11 0 3 1;
#X connect 12 0 2 0;
#X connect 12 0 5 0;
#X connect 13 0 14 0;
#X connect 14 0 15 0;
#X connect 15 0 16 0;
#X connect 16 0 19 0;
#X connect 17 0 18 0;
#X connect 17 1 18 1;
#X connect 18 0 13 0;
#X coords 0 547 1 546 380 90 0;
