#N canvas 430 207 626 425 10;
#X declare -lib purest_json;
#X obj 162 -99 inlet;
#X obj 209 28 urlparams;
#X obj 209 126 outlet;
#X obj 83 71 print params;
#X obj 162 -11 bng 15 250 50 0 empty empty empty 17 7 0 10 -262144
-1 -1;
#X obj 416 -96 import purest_json;
#X msg 209 93 GET http://www.freesound.org/api/sounds/\$2/similar?\$1
;
#X obj 209 56 pack s f;
#X obj 209 -42 symbol;
#X obj 162 -75 route bang api_key float;
#X msg 209 -14 add api_key \$1;
#X connect 0 0 9 0;
#X connect 1 0 3 0;
#X connect 1 0 7 0;
#X connect 4 0 1 0;
#X connect 6 0 2 0;
#X connect 7 0 6 0;
#X connect 8 0 10 0;
#X connect 9 0 4 0;
#X connect 9 1 8 0;
#X connect 9 2 7 1;
#X connect 10 0 1 0;
