#N canvas 635 405 432 220 10;
#X declare -lib purest_json;
#X obj 20 44 cnv 15 380 20 empty \$0-user User: 20 12 0 10 -233017
-66577 0;
#X obj 19 20 cnv 15 380 20 empty \$0-name Name: 20 12 0 9 -233017 -66577
0;
#N canvas 66 181 1032 720 get_sound_data 0;
#X obj 52 -167 inlet;
#X obj 182 -155 route api_key;
#X obj 178 -110 prepend add api_key;
#X obj 102 -21 urlparams;
#X obj 13 -139 route float;
#X obj 103 109 list2symbol;
#X obj 163 51 loadbang;
#X obj 168 79 symbol;
#X obj 103 141 prepend GET;
#X obj 104 198 json-decode;
#X obj 103 224 list trim;
#X obj 105 171 rest;
#X obj 154 169 print request;
#X obj 446 -105 route user;
#X obj 452 104 s \$0-user;
#X obj 449 74 prepend label;
#X obj 103 50 prepend;
#X msg 162 12 http://www.freesound.org/api/sounds/\$1/?;
#X obj 449 -53 json-decode;
#X obj 450 -3 route username;
#X obj 450 -29 list trim;
#X obj 448 49 l2s;
#X obj 452 -81 l2s;
#X obj 101 257 s \$0-metadata;
#X obj 445 -133 r \$0-metadata;
#X obj 540 -134 r \$0-metadata;
#X obj 540 -105 route original_filename;
#X obj 448 22 prepend User:;
#X obj 539 -76 prepend Name:;
#X obj 553 7 s \$0-name;
#X obj 704 -135 r \$0-metadata;
#X obj 704 -106 route tags;
#X obj 541 -51 l2s;
#X obj 550 -21 prepend label;
#X obj 704 57 prepend label;
#X obj 707 89 s \$0-tags;
#X obj 802 -139 r \$0-metadata;
#X obj 804 32 l2s;
#X obj 804 2 prepend Description:;
#X obj 800 -113 route description;
#X obj 803 60 prepend label;
#X obj 806 92 s \$0-description;
#X obj 804 -81 l2s;
#X obj 804 -58 s2l;
#X obj 701 -22 prepend Tags:;
#X obj 703 8 l2s;
#X obj 806 -31 zl slice 7;
#X msg 58 -59 clear;
#X obj 59 -104 t b b b f;
#X obj 160 -58 any;
#X connect 0 0 1 0;
#X connect 0 0 4 0;
#X connect 1 0 2 0;
#X connect 2 0 49 1;
#X connect 3 0 16 0;
#X connect 4 0 48 0;
#X connect 5 0 8 0;
#X connect 6 0 7 0;
#X connect 7 0 5 1;
#X connect 8 0 11 0;
#X connect 8 0 12 0;
#X connect 9 0 10 0;
#X connect 10 0 23 0;
#X connect 11 0 9 0;
#X connect 13 0 22 0;
#X connect 15 0 14 0;
#X connect 16 0 5 0;
#X connect 17 0 16 1;
#X connect 18 0 20 0;
#X connect 19 0 27 0;
#X connect 20 0 19 0;
#X connect 21 0 15 0;
#X connect 22 0 18 0;
#X connect 24 0 13 0;
#X connect 25 0 26 0;
#X connect 26 0 28 0;
#X connect 27 0 21 0;
#X connect 28 0 32 0;
#X connect 30 0 31 0;
#X connect 31 0 44 0;
#X connect 32 0 33 0;
#X connect 33 0 29 0;
#X connect 34 0 35 0;
#X connect 36 0 39 0;
#X connect 37 0 40 0;
#X connect 38 0 37 0;
#X connect 39 0 42 0;
#X connect 40 0 41 0;
#X connect 42 0 43 0;
#X connect 43 0 46 0;
#X connect 44 0 45 0;
#X connect 45 0 34 0;
#X connect 46 0 38 0;
#X connect 47 0 3 0;
#X connect 48 0 47 0;
#X connect 48 1 3 0;
#X connect 48 2 49 0;
#X connect 48 3 17 0;
#X connect 49 0 3 0;
#X restore 4 159 pd get_sound_data;
#X obj 5 129 inlet;
#X obj 20 68 cnv 15 380 20 empty \$0-tags Tags: 20 12 0 10 -233017
-66577 0;
#X obj 20 92 cnv 15 380 20 empty \$0-description Description: 20 12
0 10 -233017 -66577 0;
#X obj 128 159 import purest_json;
#X connect 3 0 2 0;
#X coords 0 -1 1 1 410 125 1 5 0;
