#N canvas 432 209 626 425 10;
#X declare -lib purest_json;
#X obj 176 -108 inlet;
#X obj 306 -96 route api_key;
#X obj 302 -51 prepend add api_key;
#X obj 226 38 urlparams;
#X obj 151 -73 route float;
#X obj 227 168 list2symbol;
#X obj 287 110 loadbang;
#X obj 292 138 symbol;
#X obj 227 200 prepend GET;
#X obj 228 119 prepend;
#X obj 284 1 any;
#X msg 286 71 http://www.freesound.org/api/sounds/\$1/similar?;
#X obj 40 -78 route bang;
#X obj 54 -47 t b b b;
#X obj 226 243 outlet;
#X obj 167 81 print params;
#X obj 122 11 bng 15 250 50 0 empty empty empty 17 7 0 10 -262144 -1
-1;
#X obj 416 -96 import purest_json;
#X connect 0 0 1 0;
#X connect 0 0 4 0;
#X connect 0 0 12 0;
#X connect 1 0 2 0;
#X connect 2 0 10 1;
#X connect 3 0 9 0;
#X connect 3 0 15 0;
#X connect 4 0 11 0;
#X connect 5 0 8 0;
#X connect 6 0 7 0;
#X connect 7 0 5 1;
#X connect 8 0 14 0;
#X connect 9 0 5 0;
#X connect 10 0 3 0;
#X connect 11 0 9 1;
#X connect 12 0 13 0;
#X connect 13 1 3 0;
#X connect 13 2 10 0;
#X connect 16 0 3 0;
