#N canvas 60 51 805 552 10;
#X declare -lib purest_json;
#X declare -lib purest_json -lib zexy -lib cyclone;
#X declare -lib purest_json -lib cyclone -lib list-abs -lib zexy;
#X obj -130 145 s api_key;
#X text -127 73 0 set api key;
#X obj -130 94 loadbang;
#X obj 223 283 bng 15 250 50 0 empty empty empty 17 7 0 10 -262144
-1 -1;
#X floatatom 280 282 10 0 1e+06 0 - - -;
#X obj 265 329 r api_key;
#X obj 165 209 r api_key;
#X obj 233 187 fs_similar;
#X obj 38 164 int;
#X obj 74 165 spigot;
#X obj 106 136 tgl 15 0 empty empty empty 17 7 0 10 -262144 -1 -1 0
1;
#X text 8 140 similarity walk;
#X msg 279 215 next;
#X msg 318 215 prev;
#X msg 360 215 stop;
#X obj 254 161 r api_key;
#X text 218 86 1 set seed sound id;
#X msg 233 108 61170;
#X obj -150 -14 cnv 15 800 30 empty empty fs_similar 20 12 0 14 -148502
-262144 0;
#X obj 197 357 fs_sound;
#X text -140 25 Freesound API sound similarity resource;
#X text 123 27 http://www.freesound.org/docs/api/resources.html#sound-similarity-resource
;
#X obj 223 245 fs_results;
#X msg -130 116 api_key <YOUR_API_KEY>;
#X text 343 183 2 navigate results;
#X connect 2 0 23 0;
#X connect 4 0 8 0;
#X connect 4 0 19 0;
#X connect 5 0 19 0;
#X connect 6 0 22 0;
#X connect 7 0 22 0;
#X connect 8 0 9 0;
#X connect 9 0 7 0;
#X connect 10 0 9 1;
#X connect 12 0 22 1;
#X connect 13 0 22 1;
#X connect 14 0 22 1;
#X connect 15 0 7 0;
#X connect 17 0 7 0;
#X connect 22 0 3 0;
#X connect 22 1 4 0;
#X connect 23 0 0 0;
