#N canvas 256 278 822 523 10;
#X declare -lib purest_json;
#X obj 346 242 urlparams;
#X obj 354 381 list2symbol;
#X obj 417 319 loadbang;
#X obj 418 349 symbol;
#X obj 354 413 prepend GET;
#X msg 96 139 clear;
#X obj 392 72 route q;
#X obj 687 44 route f;
#X obj 483 60 route api_key;
#X obj 277 55 route bang;
#X obj 321 19 inlet;
#X obj 491 107 prepend add api_key;
#X obj 684 73 prepend add f;
#X obj 389 105 prepend add q;
#X obj 96 50 route clear;
#X obj 98 94 bng 15 250 50 0 empty empty empty 17 7 0 10 -262144 -1
-1;
#X msg 252 132 0;
#X obj 350 448 outlet;
#X obj 502 83 s \$0-api_key;
#X obj 488 150 any;
#X obj 253 168 s \$0-reset;
#X obj 282 88 t b b b;
#X obj 353 278 prepend http://www.freesound.org/api/sounds/search/?
;
#X obj 644 7 import purest_json;
#X connect 0 0 22 0;
#X connect 1 0 4 0;
#X connect 2 0 3 0;
#X connect 3 0 1 1;
#X connect 4 0 17 0;
#X connect 5 0 0 0;
#X connect 6 0 13 0;
#X connect 7 0 12 0;
#X connect 8 0 11 0;
#X connect 8 0 18 0;
#X connect 9 0 21 0;
#X connect 10 0 9 0;
#X connect 10 0 6 0;
#X connect 10 0 8 0;
#X connect 10 0 7 0;
#X connect 10 0 14 0;
#X connect 11 0 0 0;
#X connect 11 0 19 1;
#X connect 12 0 0 0;
#X connect 13 0 0 0;
#X connect 14 0 15 0;
#X connect 15 0 5 0;
#X connect 16 0 20 0;
#X connect 19 0 0 0;
#X connect 21 0 5 0;
#X connect 21 1 0 0;
#X connect 21 1 16 0;
#X connect 21 2 19 0;
#X connect 22 0 1 0;
