#N canvas 555 117 494 379 12;
#X obj 28 27 inlet;
#X obj 138 288 outlet;
#X text 289 325 see fs_tokens-help.pd;
#X obj 28 192 purest_json/json-encode;
#X obj 28 83 symbol \$1;
#X obj 28 216 purest_json/json-decode;
#X obj 28 240 list trim;
#X obj 28 111 t a b;
#X obj 28 136 list;
#X obj 63 136 ggee/getdir 1;
#X msg 28 166 read \$2/\$1 \, bang;
#X msg 41 56 symbol tokens.json;
#X obj 28 288 outlet;
#X obj 28 264 route access_token client_secret;
#X msg 91 23 symbol client.json;
#X connect 0 0 4 0;
#X connect 3 0 5 0;
#X connect 4 0 7 0;
#X connect 5 0 6 0;
#X connect 6 0 13 0;
#X connect 7 0 8 0;
#X connect 7 1 9 0;
#X connect 8 0 10 0;
#X connect 9 0 8 1;
#X connect 10 0 3 0;
#X connect 11 0 4 0;
#X connect 13 0 12 0;
#X connect 13 1 1 0;
#X connect 14 0 4 0;
