#N canvas 346 158 561 476 12;
#X obj 74 32 inlet;
#X obj 128 414 outlet;
#X obj 128 251 purest_json/urlparams;
#X obj 332 207 list prepend add token;
#X obj 128 224 list trim;
#X obj 371 142 symbol;
#X obj 332 177 symbol;
#X obj 183 150 list prepend add;
#X msg 74 198 bang \, clear;
#X msg 128 138 clear;
#X obj 74 69 route bang clear;
#X msg 128 298 0;
#X obj 128 275 t b a;
#X obj 128 346 list;
#X msg 128 380 GET \$1\$2;
#X obj 281 412 text define -k \$0-search_url;
#A set https://www.freesound.org/apiv2/search/text/? \;;
#X obj 128 322 text get \$0-search_url;
#X obj 371 32 inlet token;
#X obj 183 126 list store;
#X obj 183 102 t b a;
#X obj 74 160 t b b;
#X connect 0 0 10 0;
#X connect 2 0 12 0;
#X connect 3 0 4 0;
#X connect 4 0 2 0;
#X connect 5 0 6 1;
#X connect 6 0 3 0;
#X connect 7 0 4 0;
#X connect 8 0 4 0;
#X connect 9 0 4 0;
#X connect 10 0 20 0;
#X connect 10 1 9 0;
#X connect 10 2 19 0;
#X connect 11 0 16 0;
#X connect 12 0 11 0;
#X connect 12 1 13 1;
#X connect 13 0 14 0;
#X connect 14 0 1 0;
#X connect 16 0 13 0;
#X connect 17 0 5 0;
#X connect 18 0 7 0;
#X connect 19 0 18 0;
#X connect 19 1 18 1;
#X connect 20 0 8 0;
#X connect 20 1 6 0;
