#N canvas 252 239 822 523 10;
#X declare -lib purest_json;
#X obj 345 242 urlparams;
#X msg 171 166 clear;
#X obj 279 21 inlet;
#X msg 238 155 0;
#X obj 345 309 outlet;
#X obj 364 101 s \$0-api_key;
#X obj 238 180 s \$0-reset;
#X obj 644 7 import purest_json;
#X obj 263 104 t b b b b;
#X obj 171 122 bng 15 250 50 0 empty empty empty 17 7 0 10 -262144
-1 -1;
#X msg 481 131 add q \$1;
#X obj 481 102 symbol;
#X obj 545 105 symbol;
#X msg 545 130 add f \$1;
#X obj 345 128 symbol;
#X msg 345 154 add api_key \$1;
#X msg 345 272 GET http://www.freesound.org/api/sounds/search/?\$1
;
#X obj 279 47 route clear bang api_key q f;
#X connect 0 0 16 0;
#X connect 1 0 0 0;
#X connect 2 0 17 0;
#X connect 3 0 6 0;
#X connect 8 0 1 0;
#X connect 8 1 3 0;
#X connect 8 2 0 0;
#X connect 8 3 14 0;
#X connect 9 0 1 0;
#X connect 10 0 0 0;
#X connect 11 0 10 0;
#X connect 12 0 13 0;
#X connect 13 0 0 0;
#X connect 14 0 15 0;
#X connect 15 0 0 0;
#X connect 16 0 4 0;
#X connect 17 0 9 0;
#X connect 17 1 8 0;
#X connect 17 2 14 0;
#X connect 17 2 5 0;
#X connect 17 3 11 0;
#X connect 17 4 12 0;
