#N canvas 312 59 450 302 12;
#X obj 46 107 text;
#X obj 46 177 text get -s text t;
#X obj 56 38 loadbang;
#X obj 46 131 t b p;
#X msg 46 85 read \$1 \, bang;
#X obj 46 205 list trim;
#X obj 46 61 symbol \$2;
#X obj 46 155 f \$1;
#X obj 46 261 s token-\$1;
#X obj 46 16 inlet;
#X obj 46 231 t a a;
#X obj 146 262 outlet;
#X text 222 192 see fs_tokens-help.pd;
#X connect 0 0 3 0;
#X connect 1 0 5 0;
#X connect 2 0 6 0;
#X connect 3 0 7 0;
#X connect 3 1 1 3;
#X connect 4 0 0 0;
#X connect 5 0 10 0;
#X connect 6 0 4 0;
#X connect 7 0 1 0;
#X connect 9 0 6 0;
#X connect 10 0 8 0;
#X connect 10 1 11 0;
