#N canvas 461 284 502 464 10;
#X declare -lib purest_json;
#X declare -lib purest_json;
#X declare -lib purest_json;
#X declare -lib purest_json -lib zexy -lib cyclone;
#X declare -lib purest_json -lib cyclone -lib list-abs -lib zexy;
#X obj -139 -4 cnv 15 500 30 empty empty Freesound_API 20 12 0 14 -148502
-262144 0;
#X text -121 38 A set of abstractions for interacting with the freesound
API;
#X text -121 67 http://www.freesound.org/docs/api/;
#X obj -118 197 fs_text_search;
#X obj -118 225 fs_content_search;
#X obj -118 254 fs_similar;
#X obj -118 282 fs_sound;
#X text -121 154 Check help fiels for examples;
#X text -121 125 Requirements: PuRESTJson and shell;
#X text -121 96 Apply for an API key: http://www.freesound.org/api/apply/
;
#X obj 56 197 fs_results;
